<svg xmlns="http://www.w3.org/2000/svg" viewBox="0 0 512 512"><defs><style>.cls-1{fill:#fbbb00;}.cls-2{fill:#518ef8;}.cls-3{fill:#28b446;}.cls-4{fill:#f14336;}</style></defs><title>Recurso 1</title><g id="Capa_2" data-name="Capa 2"><g id="Layer_1" data-name="Layer 1"><path class="cls-1" d="M113.47,309.41,95.65,375.94l-65.14,1.38a256.46,256.46,0,0,1-1.89-239h0l58,10.63L112,206.54a152.85,152.85,0,0,0,1.44,102.87Z"/><path class="cls-2" d="M507.53,208.18a255.93,255.93,0,0,1-91.26,247.46l0,0-73-3.72-10.34-64.54a152.55,152.55,0,0,0,65.65-77.91H261.63V208.18h245.9Z"/><path class="cls-3" d="M416.25,455.62l0,0A256.09,256.09,0,0,1,30.51,377.32l83-67.91a152.25,152.25,0,0,0,219.4,77.95Z"/><path class="cls-4" d="M419.4,58.94l-82.93,67.89A152.23,152.23,0,0,0,112,206.54l-83.4-68.27h0A256,256,0,0,1,419.4,58.94Z"/></g></g></svg>